<svg fill="none" viewBox="0 0 185 32" xmlns="http://www.w3.org/2000/svg"><path d="m121.09 28.336c2.352 0 4.392-1.248 5.424-3.12l-2.688-1.536c-.48.984-1.512 1.584-2.76 1.584-1.848 0-3.216-1.368-3.216-3.264 0-1.92 1.368-3.288 3.216-3.288 1.224 0 2.256.624 2.736 1.608l2.664-1.56c-.984-1.848-3.024-3.096-5.376-3.096-3.648 0-6.336 2.76-6.336 6.336s2.688 6.336 6.336 6.336zm15.994-12.336v1.416c-.864-1.08-2.16-1.752-3.912-1.752-3.192 0-5.832 2.76-5.832 6.336s2.64 6.336 5.832 6.336c1.752 0 3.048-.672 3.912-1.752v1.416h3.096v-12zm-3.336 9.384c-1.896 0-3.312-1.368-3.312-3.384s1.416-3.384 3.312-3.384c1.92 0 3.336 1.368 3.336 3.384s-1.416 3.384-3.336 3.384zm16.103-6.408v-2.976h-2.712v-3.36l-3.096.936v2.424h-2.088v2.976h2.088v4.992c0 3.24 1.464 4.512 5.808 4.032v-2.808c-1.776.096-2.712.072-2.712-1.224v-4.992zm3.719-4.416c1.056 0 1.92-.864 1.92-1.896s-.864-1.92-1.92-1.92c-1.032 0-1.896.888-1.896 1.92s.864 1.896 1.896 1.896zm-1.536 13.44h3.096v-12h-3.096zm11.642.336c3.528 0 6.36-2.76 6.36-6.336s-2.832-6.336-6.36-6.336-6.336 2.76-6.336 6.336 2.808 6.336 6.336 6.336zm0-3.024c-1.824 0-3.24-1.368-3.24-3.312s1.416-3.312 3.24-3.312c1.848 0 3.264 1.368 3.264 3.312s-1.416 3.312-3.264 3.312zm15.21-9.648c-1.608 0-2.856.6-3.576 1.68v-1.344h-3.096v12h3.096v-6.48c0-2.088 1.128-2.976 2.64-2.976 1.392 0 2.376.84 2.376 2.472v6.984h3.096v-7.368c0-3.192-1.992-4.968-4.536-4.968z" fill="#667eea"/><path d="m61.063 28h3.768l3.144-11.088 3.168 11.088h3.768l4.704-16.8h-3.48l-3.215 12.456-3.529-12.456h-2.831l-3.504 12.456-3.216-12.456h-3.48zm24.611.336c3.528 0 6.36-2.76 6.36-6.336s-2.832-6.336-6.36-6.336-6.336 2.76-6.336 6.336 2.808 6.336 6.336 6.336zm0-3.024c-1.824 0-3.24-1.368-3.24-3.312s1.416-3.312 3.24-3.312c1.848 0 3.264 1.368 3.264 3.312s-1.416 3.312-3.264 3.312zm11.634-7.248v-2.064h-3.096v12h3.096v-5.736c0-2.52 2.04-3.24 3.648-3.048v-3.456c-1.512 0-3.024.672-3.648 2.304zm16.523 9.936-4.968-6.072 4.824-5.928h-3.696l-4.128 5.28v-10.08h-3.096v16.8h3.096v-5.448l4.368 5.448z" fill="#2d3748"/><path clip-rule="evenodd" d="m43.911 12.604-7.698-4.444v20.645h9v2h-44v-2h4v-12.72l-3.728.933-.485-1.94 21.09-5.273h3.122a9.552 9.552 0 0 0 -.68 2.559l-.483 3.975 5.164-2.982v15.448h5v-20.644l-7.696 4.444a7.502 7.502 0 0 1 2.565-4.8h-4.12a7.489 7.489 0 0 1 6.646-2.973l-5.591-3.228a7.488 7.488 0 0 1 6.696.402c1.039.6 1.88 1.41 2.5 2.347a7.461 7.461 0 0 1 2.5-2.347 7.49 7.49 0 0 1 6.698-.402l-5.593 3.228a7.488 7.488 0 0 1 6.646 2.973h-4.12a7.498 7.498 0 0 1 2.567 4.8zm-18.698 16.201v-10h-6v10zm-11-8a2 2 0 1 1 -4 0 2 2 0 0 1 4 0z" fill="#667eea" fill-rule="evenodd"/></svg>